<svg xmlns="http://www.w3.org/2000/svg" width="521.12" height="35" viewBox="0 0 521.12 35"><rect class="svg__rect" x="0" y="0" width="163.11" height="35" fill="#F10000"/><rect class="svg__rect" x="161.11" y="0" width="360.01" height="35" fill="#00A1F1"/><path class="svg__text" d="M15.69 22L14.22 22L14.22 13.47L16.14 13.47L18.60 20.01L21.06 13.47L22.97 13.47L22.97 22L21.49 22L21.49 19.19L21.64 15.43L19.12 22L18.06 22L15.55 15.43L15.69 19.19L15.69 22ZM28.49 22L26.95 22L30.17 13.47L31.50 13.47L34.73 22L33.18 22L32.49 20.01L29.18 20.01L28.49 22ZM30.83 15.28L29.60 18.82L32.07 18.82L30.83 15.28ZM41.14 22L38.69 22L38.69 13.47L41.21 13.47Q42.34 13.47 43.21 13.97Q44.09 14.48 44.57 15.40Q45.05 16.33 45.05 17.52L45.05 17.52L45.05 17.95Q45.05 19.16 44.57 20.08Q44.08 21.00 43.19 21.50Q42.30 22 41.14 22L41.14 22ZM40.17 14.66L40.17 20.82L41.14 20.82Q42.30 20.82 42.93 20.09Q43.55 19.36 43.56 17.99L43.56 17.99L43.56 17.52Q43.56 16.13 42.96 15.40Q42.35 14.66 41.21 14.66L41.21 14.66L40.17 14.66ZM55.09 22L49.51 22L49.51 13.47L55.05 13.47L55.05 14.66L51.00 14.66L51.00 17.02L54.50 17.02L54.50 18.19L51.00 18.19L51.00 20.82L55.09 20.82L55.09 22ZM66.65 22L64.68 13.47L66.15 13.47L67.47 19.88L69.10 13.47L70.34 13.47L71.96 19.89L73.27 13.47L74.74 13.47L72.77 22L71.35 22L69.73 15.77L68.07 22L66.65 22ZM80.38 22L78.90 22L78.90 13.47L80.38 13.47L80.38 22ZM86.87 14.66L84.23 14.66L84.23 13.47L91.00 13.47L91.00 14.66L88.34 14.66L88.34 22L86.87 22L86.87 14.66ZM96.24 22L94.75 22L94.75 13.47L96.24 13.47L96.24 17.02L100.05 17.02L100.05 13.47L101.53 13.47L101.53 22L100.05 22L100.05 18.21L96.24 18.21L96.24 22ZM117.60 22L112.24 22L112.24 13.47L113.73 13.47L113.73 20.82L117.60 20.82L117.60 22ZM121.46 18.00L121.46 18.00L121.46 17.52Q121.46 16.28 121.90 15.32Q122.34 14.37 123.15 13.86Q123.95 13.35 124.99 13.35Q126.04 13.35 126.84 13.85Q127.65 14.35 128.09 15.29Q128.53 16.23 128.53 17.48L128.53 17.48L128.53 17.96Q128.53 19.21 128.10 20.16Q127.67 21.10 126.86 21.61Q126.06 22.12 125.01 22.12L125.01 22.12Q123.97 22.12 123.16 21.61Q122.35 21.10 121.90 20.17Q121.46 19.23 121.46 18.00ZM122.94 17.46L122.94 17.96Q122.94 19.36 123.49 20.13Q124.03 20.90 125.01 20.90L125.01 20.90Q125.99 20.90 126.52 20.15Q127.05 19.40 127.05 17.96L127.05 17.96L127.05 17.51Q127.05 16.09 126.52 15.34Q125.98 14.58 124.99 14.58L124.99 14.58Q124.03 14.58 123.49 15.33Q122.95 16.09 122.94 17.46L122.94 17.46ZM135.30 22L132.24 13.47L133.86 13.47L136.00 20.14L138.17 13.47L139.80 13.47L136.73 22L135.30 22ZM149.33 22L143.75 22L143.75 13.47L149.29 13.47L149.29 14.66L145.23 14.66L145.23 17.02L148.74 17.02L148.74 18.19L145.23 18.19L145.23 20.82L149.33 20.82L149.33 22Z" fill="#FFFFFF"/><path class="svg__text" d="M177.68 22L175.30 22L175.30 13.60L181.89 13.60L181.89 15.44L177.68 15.44L177.68 17.28L181.39 17.28L181.39 19.12L177.68 19.12L177.68 22ZM186.41 18.26L186.41 18.26L186.41 13.60L188.79 13.60L188.79 18.19Q188.79 20.20 190.39 20.20L190.39 20.20Q191.97 20.20 191.97 18.19L191.97 18.19L191.97 13.60L194.31 13.60L194.31 18.26Q194.31 20.13 193.27 21.15Q192.23 22.17 190.36 22.17L190.36 22.17Q188.49 22.17 187.45 21.15Q186.41 20.13 186.41 18.26ZM201.19 15.48L198.61 15.48L198.61 13.60L206.13 13.60L206.13 15.48L203.56 15.48L203.56 22L201.19 22L201.19 15.48ZM210.43 18.26L210.43 18.26L210.43 13.60L212.81 13.60L212.81 18.19Q212.81 20.20 214.40 20.20L214.40 20.20Q215.99 20.20 215.99 18.19L215.99 18.19L215.99 13.60L218.33 13.60L218.33 18.26Q218.33 20.13 217.29 21.15Q216.25 22.17 214.38 22.17L214.38 22.17Q212.50 22.17 211.47 21.15Q210.43 20.13 210.43 18.26ZM225.79 22L223.42 22L223.42 13.60L227.26 13.60Q228.40 13.60 229.24 13.98Q230.08 14.35 230.53 15.06Q230.99 15.76 230.99 16.71L230.99 16.71Q230.99 17.62 230.56 18.30Q230.14 18.98 229.34 19.36L229.34 19.36L231.16 22L228.61 22L227.09 19.77L225.79 19.77L225.79 22ZM225.79 15.47L225.79 17.93L227.11 17.93Q227.84 17.93 228.22 17.61Q228.59 17.29 228.59 16.71L228.59 16.71Q228.59 16.12 228.22 15.79Q227.84 15.47 227.11 15.47L227.11 15.47L225.79 15.47ZM242.52 22L235.78 22L235.78 13.60L242.37 13.60L242.37 15.44L238.13 15.44L238.13 16.85L241.87 16.85L241.87 18.63L238.13 18.63L238.13 20.17L242.52 20.17L242.52 22ZM256.68 22L254.30 22L254.30 13.60L258.14 13.60Q259.29 13.60 260.12 13.98Q260.96 14.35 261.42 15.06Q261.88 15.76 261.88 16.71L261.88 16.71Q261.88 17.62 261.45 18.30Q261.02 18.98 260.23 19.36L260.23 19.36L262.04 22L259.50 22L257.97 19.77L256.68 19.77L256.68 22ZM256.68 15.47L256.68 17.93L258.00 17.93Q258.73 17.93 259.10 17.61Q259.47 17.29 259.47 16.71L259.47 16.71Q259.47 16.12 259.10 15.79Q258.73 15.47 258.00 15.47L258.00 15.47L256.68 15.47ZM273.41 22L266.66 22L266.66 13.60L273.25 13.60L273.25 15.44L269.02 15.44L269.02 16.85L272.75 16.85L272.75 18.63L269.02 18.63L269.02 20.17L273.41 20.17L273.41 22ZM279.63 22L277.20 22L280.91 13.60L283.26 13.60L286.97 22L284.50 22L283.84 20.37L280.29 20.37L279.63 22ZM282.07 15.93L280.98 18.61L283.15 18.61L282.07 15.93ZM295.10 22L291.13 22L291.13 13.60L295.10 13.60Q296.48 13.60 297.55 14.12Q298.61 14.63 299.20 15.58Q299.79 16.53 299.79 17.80L299.79 17.80Q299.79 19.07 299.20 20.02Q298.61 20.97 297.55 21.48Q296.48 22 295.10 22L295.10 22ZM293.50 15.50L293.50 20.10L295.00 20.10Q296.08 20.10 296.74 19.49Q297.39 18.88 297.39 17.80L297.39 17.80Q297.39 16.72 296.74 16.11Q296.08 15.50 295.00 15.50L295.00 15.50L293.50 15.50ZM306.65 18.95L303.44 13.60L305.95 13.60L307.94 16.94L309.93 13.60L312.24 13.60L309.02 18.99L309.02 22L306.65 22L306.65 18.95ZM325.09 15.48L322.50 15.48L322.50 13.60L330.03 13.60L330.03 15.48L327.46 15.48L327.46 22L325.09 22L325.09 15.48ZM335.82 22L333.39 22L337.10 13.60L339.44 13.60L343.16 22L340.69 22L340.03 20.37L336.48 20.37L335.82 22ZM338.25 15.93L337.17 18.61L339.33 18.61L338.25 15.93ZM353.70 22L347.31 22L347.31 13.60L349.69 13.60L349.69 20.11L353.70 20.11L353.70 22ZM364.86 22L358.12 22L358.12 13.60L364.71 13.60L364.71 15.44L360.47 15.44L360.47 16.85L364.20 16.85L364.20 18.63L360.47 18.63L360.47 20.17L364.86 20.17L364.86 22ZM372.00 22L369.67 22L369.67 13.60L371.62 13.60L375.33 18.07L375.33 13.60L377.66 13.60L377.66 22L375.71 22L372.00 17.52L372.00 22ZM384.61 15.48L382.03 15.48L382.03 13.60L389.55 13.60L389.55 15.48L386.99 15.48L386.99 22L384.61 22L384.61 15.48ZM403.27 22L400.90 22L400.90 13.60L403.27 13.60L403.27 22ZM410.78 22L408.45 22L408.45 13.60L410.41 13.60L414.11 18.07L414.11 13.60L416.44 13.60L416.44 22L414.49 22L410.78 17.52L410.78 22ZM423.40 15.48L420.81 15.48L420.81 13.60L428.34 13.60L428.34 15.48L425.77 15.48L425.77 22L423.40 22L423.40 15.48ZM439.45 22L432.71 22L432.71 13.60L439.30 13.60L439.30 15.44L435.06 15.44L435.06 16.85L438.79 16.85L438.79 18.63L435.06 18.63L435.06 20.17L439.45 20.17L439.45 22ZM446.63 22L444.25 22L444.25 13.60L448.10 13.60Q449.24 13.60 450.08 13.98Q450.92 14.35 451.37 15.06Q451.83 15.76 451.83 16.71L451.83 16.71Q451.83 17.62 451.40 18.30Q450.98 18.98 450.18 19.36L450.18 19.36L452.00 22L449.45 22L447.93 19.77L446.63 19.77L446.63 22ZM446.63 15.47L446.63 17.93L447.95 17.93Q448.68 17.93 449.06 17.61Q449.43 17.29 449.43 16.71L449.43 16.71Q449.43 16.12 449.06 15.79Q448.68 15.47 447.95 15.47L447.95 15.47L446.63 15.47ZM458.95 22L456.62 22L456.62 13.60L458.58 13.60L462.28 18.07L462.28 13.60L464.61 13.60L464.61 22L462.66 22L458.95 17.52L458.95 22ZM469.19 21.24L469.19 21.24L469.97 19.49Q470.53 19.86 471.27 20.09Q472.02 20.32 472.74 20.32L472.74 20.32Q474.10 20.32 474.11 19.64L474.11 19.64Q474.11 19.28 473.72 19.11Q473.33 18.93 472.46 18.74L472.46 18.74Q471.51 18.53 470.88 18.30Q470.24 18.06 469.79 17.55Q469.33 17.03 469.33 16.16L469.33 16.16Q469.33 15.39 469.75 14.77Q470.17 14.15 471.01 13.79Q471.84 13.43 473.05 13.43L473.05 13.43Q473.87 13.43 474.68 13.62Q475.49 13.80 476.10 14.17L476.10 14.17L475.37 15.93Q474.17 15.28 473.04 15.28L473.04 15.28Q472.33 15.28 472.00 15.49Q471.68 15.70 471.68 16.04L471.68 16.04Q471.68 16.37 472.07 16.54Q472.45 16.71 473.30 16.89L473.30 16.89Q474.26 17.10 474.89 17.33Q475.52 17.56 475.98 18.07Q476.45 18.58 476.45 19.46L476.45 19.46Q476.45 20.21 476.03 20.83Q475.61 21.44 474.77 21.80Q473.93 22.17 472.73 22.17L472.73 22.17Q471.71 22.17 470.75 21.92Q469.78 21.67 469.19 21.24ZM483.40 22L481.02 22L481.02 13.60L483.40 13.60L483.40 16.76L486.64 16.76L486.64 13.60L489.01 13.60L489.01 22L486.64 22L486.64 18.72L483.40 18.72L483.40 22ZM496.56 22L494.18 22L494.18 13.60L496.56 13.60L496.56 22ZM504.11 22L501.73 22L501.73 13.60L505.57 13.60Q506.71 13.60 507.55 13.98Q508.39 14.35 508.85 15.06Q509.31 15.76 509.31 16.71L509.31 16.71Q509.31 17.66 508.85 18.35Q508.39 19.05 507.55 19.42Q506.71 19.80 505.57 19.80L505.57 19.80L504.11 19.80L504.11 22ZM504.11 15.47L504.11 17.93L505.43 17.93Q506.16 17.93 506.53 17.61Q506.90 17.29 506.90 16.71L506.90 16.71Q506.90 16.12 506.53 15.80Q506.16 15.47 505.43 15.47L505.43 15.47L504.11 15.47Z" fill="#FFFFFF" x="174.11"/></svg>